PathFileType	4	(X/Y/Z)	Patient4_TMGait_0pt4_02_left_27.trc.trc
DataRate	CameraRate	NumFrames	NumMarkers	Units	OrigDataRate	OrigDataStartFrame	OrigNumFrames
74.468085106383	74.468085106383	6	33	mm	74.468085106383	89	       141
Frame#	Time	Sacral			L.Shoulder			Chest			R.Shoulder			Neck			R.ASIS			L.ASIS			R.Thigh.Superior			R.Thigh.Lateral			R.Thigh.Inferior			R.Patella			L.Thigh.Superior			L.Thigh.Lateral			L.Thigh.Inferior			L.Patella			L.Shank.Superior			L.Shank.Lateral			L.Shank.Inferior			R.Shank.Superior			R.Shank.Lateral			R.Shank.Inferior			R.Heel			R.Midfoot.Superior			R.Midfoot.Lateral			R.Toe			L.Heel			L.Midfoot.Lateral			L.Midfoot.Superior			L.Toe			L.Elbow			L.Wrist			R.Elbow			R.Wrist			
		X1	Y1	Z1	X2	Y2	Z2	X3	Y3	Z3	X4	Y4	Z4	X5	Y5	Z5	X6	Y6	Z6	X7	Y7	Z7	X8	Y8	Z8	X9	Y9	Z9	X10	Y10	Z10	X11	Y11	Z11	X12	Y12	Z12	X13	Y13	Z13	X14	Y14	Z14	X15	Y15	Z15	X16	Y16	Z16	X17	Y17	Z17	X18	Y18	Z18	X19	Y19	Z19	X20	Y20	Z20	X21	Y21	Z21	X22	Y22	Z22	X23	Y23	Z23	X24	Y24	Z24	X25	Y25	Z25	X26	Y26	Z26	X27	Y27	Z27	X28	Y28	Z28	X29	Y29	Z29	X30	Y30	Z30	X31	Y31	Z31	X32	Y32	Z32	X33	Y33	Z33	

89	37.401714285714	931.323901346016	998.012099092068	471.943572922708	1106.485176741756	1429.219707062183	285.596693675859	1200.992851129598	1369.047809212870	454.737201997996	1102.137119384275	1441.590543500508	620.813586605250	1075.308695261869	1493.228830743616	439.370751016864	1158.473645078899	943.352299784543	599.556703190993	1155.063375301626	963.039827125139	323.804383379258	1216.860596323892	747.496958710657	572.455760215660	1142.295269746459	632.885038585936	631.675567749389	1227.684813834747	585.734154216907	555.281918159889	1236.897307303443	495.683007036161	563.188929732905	1181.301602106957	737.293881557280	342.811873993005	1086.727166876320	630.838013173601	271.291874339943	1166.702112705805	541.206113412509	326.610389094806	1156.539025690584	459.899484298908	321.603961436799	1095.137943651132	401.615237506657	312.624617836099	961.695446646576	341.777220554332	261.942552082559	965.197751849631	211.166281891866	315.956000551393	1206.407224230198	406.111876492281	569.819857564174	1134.810524925366	304.215759751985	633.469739078539	1175.047136702617	207.459282462901	572.000691642358	1040.605130340259	43.644320569531	548.903992293935	1212.189995988646	97.675536101217	580.813302524042	1125.333125178398	37.922401510419	621.827193498829	1333.408912772924	43.919321842762	606.885647365515	787.968846515270	112.177317465264	353.372793300699	852.991077466321	78.428810986336	273.919011686495	952.400792187907	111.384217914133	294.962462772754	1052.921268258907	34.819869752308	269.011998385071	1107.642654021025	1082.916095187926	155.088358885045	1330.530948097975	947.411565697719	141.004973613771	1029.602007445483	1105.766065462673	748.289555402985	1145.194632889250	871.040351601162	752.987493340422	
90	37.415142857143	931.104445371254	998.313760881268	476.796838531187	1104.696427740817	1429.404015767844	288.995804398115	1200.860096530782	1369.307279666085	457.304202008187	1103.644026744458	1442.061680655452	624.197520073364	1074.892746814838	1493.464703473064	442.886032881968	1159.193211820748	943.556281687247	602.685233197653	1152.896901015103	962.830771795976	327.461951782457	1215.863465686329	746.741884046243	575.886755230133	1140.068011558278	632.653580369056	634.559749564189	1225.007333081602	585.085125544755	558.032374618537	1233.312096386606	495.054530749732	565.424901501853	1185.911793686651	739.664333060002	346.153941446466	1095.382064081411	630.873813169110	273.510049909875	1178.117670343050	542.894142468019	328.674143286699	1169.031626432890	460.407725892854	322.917612160722	1105.637305613138	402.182478002884	313.909701832537	970.197591274373	347.155045843101	263.097332825499	969.527036967335	216.369160035067	316.394375542890	1202.555111739499	405.614331600969	571.671275279467	1130.721630169858	303.709924920704	634.938642770282	1170.348624590340	207.099079332924	572.822644592787	1035.151276821596	43.631170096460	549.053575755186	1206.828150783500	97.501850512766	581.082567244189	1119.878069098139	37.845982965126	622.003586189225	1328.029064159480	43.468669573589	607.085634115588	788.554893173809	125.701963801330	353.227070979911	851.864126529164	88.424173440062	273.873649339818	952.970614177086	115.998594038206	294.855838011135	1048.408244175040	34.039449092699	269.215173442053	1104.819528406249	1082.625374836776	159.548645372357	1322.638735039092	938.416846786969	145.311416239997	1036.583577939527	1105.759476002296	754.051714785837	1163.140435242531	876.993967023776	756.096894952763	
91	37.428571428571	930.609792908775	998.552990099856	481.531517827121	1102.689952958013	1429.490013663317	292.265527684282	1200.610793641285	1369.395055387727	459.642986270510	1105.239759311538	1442.396894583197	627.448460938659	1074.454101669113	1493.621371563281	446.298693278547	1159.710296989938	943.684832222455	605.515766938244	1150.445328838277	962.503233214400	330.760831889487	1214.675027848508	746.022007399506	578.887760282272	1137.886764388108	632.450155757754	637.304234450119	1222.211762558626	584.468724958640	560.491903197963	1229.623762837433	494.453810448172	567.512160041059	1190.376471667025	742.328964543760	349.289193521720	1104.094821897001	631.243491395171	275.521806701332	1189.528001078791	545.121907428180	330.648432288738	1181.711861469242	461.536492572481	324.317848127868	1116.550899574623	403.183032128600	315.257735008327	979.336824507032	352.810595348958	264.257134687326	974.546368767692	222.000744603359	317.038631487566	1198.628797654007	405.138819797965	573.433664019601	1126.568741284644	303.226746124091	636.366631418862	1165.604429567751	206.761203147379	573.635810550566	1029.690644004973	43.616866934908	549.229713473281	1201.456334681021	97.341530771069	581.361340082551	1114.422131395886	37.773371330437	622.201711820019	1322.632800549200	43.085922833217	607.278343402888	790.163971830873	139.604430495379	353.327642727167	851.719338598027	99.095488453396	274.006029157446	954.325053114175	121.239642999300	295.047071372824	1044.658954441926	33.395695074516	269.469958152262	1101.670122975035	1082.155492642649	164.064343432758	1313.741233790573	928.958265169381	149.586126681918	1044.137983034305	1105.759547443566	759.891377516150	1181.565986939962	883.678097220460	759.053470971695	
92	37.442000000000	929.862339772870	998.744987528402	486.116104292524	1100.489673666181	1429.508138965481	295.387742643628	1200.232781293296	1369.345518472369	461.749413054036	1106.871638762794	1442.608712655690	630.542953172171	1073.993175177874	1493.725593933701	449.587849772288	1160.020702006949	943.758961632381	608.039321772037	1147.810022008042	962.137079275607	333.675291300159	1213.311364464546	745.357481622760	581.441628990680	1135.757924225321	632.273899580155	639.868373980728	1219.319126173845	583.890518005565	562.632134821599	1225.854981942727	493.886440576088	569.396346413195	1194.534254783730	745.280340516741	352.186947804892	1112.611575766779	632.018616385391	277.338305119642	1200.665166508963	547.932823125002	332.488859307267	1194.322723751037	463.335233180238	325.726559454677	1127.651482957267	404.671944518027	316.614555969414	988.888904524984	358.620365359365	265.434863718363	980.230018395898	227.886567690550	317.873463985702	1194.653722019872	404.693080078880	575.059144516005	1122.379127588737	302.778397408036	637.714574100056	1160.835543253043	206.450770022570	574.407622982236	1024.238054816234	43.606874036246	549.427456617166	1196.087498827852	97.203400903833	581.644655147924	1108.978144091666	37.711367788277	622.416454367367	1317.232699598563	42.776856132473	607.467151905755	792.876622923066	153.282941729415	353.722028631739	852.728815670251	109.963775740382	274.352782187955	956.594730063645	126.913775302146	295.525714102509	1042.054849424363	32.999423352032	269.762216816533	1098.150079212941	1081.525719586074	168.660454181896	1303.774594582954	919.176635445434	153.835332283492	1052.288314067644	1105.766315744417	765.716113913430	1200.393901358614	891.081107536959	761.769932741895	
93	37.455428571429	928.893010824136	998.919694461952	490.526242997573	1098.123965391171	1429.496137093057	298.350790904922	1199.721461029862	1369.206216677956	463.626834896211	1108.492801327879	1442.726281556474	633.461608549974	1073.510247460941	1493.811474096122	452.733668807457	1160.126296203139	943.798480908033	610.261345529090	1145.069654628245	961.814023102945	336.213240823429	1211.780026228514	744.756180398881	583.564770061117	1133.649286749043	632.121885993712	642.215720303471	1216.330369339018	583.349643470508	564.448797949572	1222.002015096480	493.357069673941	571.034912643625	1198.252223780811	748.506951507526	354.832062408265	1120.690041179862	633.244465562117	278.975324496010	1211.286981082403	551.339239728626	334.142373739296	1206.615620913856	465.824059333860	327.048528550200	1138.722254940286	406.678921170183	317.910568480284	998.636281635911	364.418912011271	266.632953056943	986.584033905704	233.797368917292	318.857704115877	1190.632559364280	404.284881656016	576.508597452403	1118.158438922579	302.374244658627	638.946556297551	1156.049713490943	206.171938087449	575.109248402742	1018.801146772443	43.604465340785	549.638895054736	1190.727883896732	97.091614693106	581.924525014104	1103.551291872023	37.663832025003	622.640076257720	1311.835452899700	42.540478844351	607.652983695020	796.783776991396	166.058999837204	354.430032622717	855.081369120895	120.454660315246	274.927956126802	959.951887250625	132.746843075290	296.246806812708	1041.038200008671	32.953975948289	270.066122269843	1094.216652273195	1080.772481925329	173.353392435707	1292.686021494979	909.228592933841	158.072094597537	1061.033310546892	1105.805016453253	771.428486764637	1219.531391499680	899.206422380127	764.158403230470	
94	37.468857142857	927.738106889595	999.116979323378	494.742939804371	1095.626206874919	1429.494476482866	301.151117930578	1199.081840854949	1369.029741126644	465.285988237638	1110.068015232912	1442.790457425866	636.190951800256	1073.006798701331	1493.915699275305	455.719170222980	1160.034377701003	943.820809514791	612.200911462901	1142.278548992634	961.608211217418	338.408713661120	1210.081136962818	744.215939469668	585.296661149601	1131.504406980936	631.992442355947	644.317553252837	1213.230353759282	582.841061182369	565.955560100428	1218.040828311835	492.869876608777	572.400477743786	1201.434935178183	751.990385007867	357.220950053320	1128.120285918947	634.932779418600	280.450804322701	1221.189372867561	555.317511522229	335.555909005899	1218.363059492378	468.991158194367	328.191001885181	1149.571972002256	409.201278111526	319.074370786604	1008.390365189686	370.002992520212	267.842400347782	993.649195353958	239.462896141442	319.929050716369	1186.549423993010	403.921417976475	577.754906486481	1113.895471988602	302.021156007635	640.035541710816	1151.243530891523	205.928133169767	575.719249878150	1013.381733918950	43.610733272874	549.855387448932	1185.378285153449	97.006390397069	582.191923857304	1098.140861018458	37.631861017991	622.864087813260	1306.443040437115	42.370931507193	607.834744610552	801.990651155204	177.235880275084	355.435894948598	858.976480321686	129.952986373618	275.715285080729	964.601743349510	138.407433576160	297.135199155282	1042.079836919691	33.329947991620	270.340515592694	1089.832039027205	1079.946065626051	178.148225734878	1280.439101981179	899.280298927253	162.314531114690	1070.343912352593	1105.920683258428	776.930700596306	1238.869023779286	908.072594435448	766.134681612283	
